<?xml version="1.0" standalone="no"?><!DOCTYPE svg PUBLIC "-//W3C//DTD SVG 1.1//EN" "http://www.w3.org/Graphics/SVG/1.1/DTD/svg11.dtd"><svg class="icon" width="200px" height="185.00px" viewBox="0 0 1107 1024" version="1.1" xmlns="http://www.w3.org/2000/svg"><path fill="#ffffff" d="M232.143568 962.718147c-0.498162-0.964695-0.853992-2.372201-0.853993-4.036695V340.015444a29.65251 29.65251 0 0 0-59.305019 0v618.666008c0 33.902703 24.576 63.341714 57.790764 63.341714h639.569051c33.218718 0 57.790764-29.419243 57.790764-63.341714V340.015444a29.65251 29.65251 0 1 0-59.305019 0v618.666008c0 1.664494-0.35583 3.072-0.846085 4.036695H232.143568zM29.65251 199.660232h1047.722007a29.65251 29.65251 0 1 0 0-59.30502H29.65251a29.65251 29.65251 0 0 0 0 59.30502z"  /><path fill="#ffffff" d="M345.945946 379.552124v433.187583a29.65251 29.65251 0 1 0 59.305019 0V379.552124a29.65251 29.65251 0 0 0-59.305019 0zM519.907336 379.552124v433.187583a29.65251 29.65251 0 1 0 59.305019 0V379.552124a29.65251 29.65251 0 1 0-59.305019 0zM697.822394 379.552124v433.187583a29.65251 29.65251 0 1 0 59.305019 0V379.552124a29.65251 29.65251 0 1 0-59.305019 0zM365.714286 162.124108V63.234965c0-1.071444 0.881668-1.953112 1.996602-1.953112h375.558919c1.095166 0 1.996602 0.901436 1.996602 1.953112v98.889143a29.65251 29.65251 0 1 0 59.30502 0V63.234965C804.571429 29.423197 777.109251 1.976834 743.269807 1.976834h-375.558919C333.863537 1.976834 306.409266 29.391568 306.409266 63.234965v98.889143a29.65251 29.65251 0 0 0 59.30502 0z"  /></svg>