<?xml version="1.0" standalone="no"?><!DOCTYPE svg PUBLIC "-//W3C//DTD SVG 1.1//EN" "http://www.w3.org/Graphics/SVG/1.1/DTD/svg11.dtd"><svg class="icon" width="200px" height="200.00px" viewBox="0 0 1024 1024" version="1.1" xmlns="http://www.w3.org/2000/svg"><path fill="#ffffff" d="M854.208 314.752a55.296 55.296 0 0 1 110.528 0v535.36c0 61.632-49.984 111.616-111.616 111.616H176.768c-61.696 0-111.616-49.92-111.616-111.616V173.888c0-61.632 50.048-111.616 111.616-111.616h536.128a55.296 55.296 0 0 1 0 110.464H176.768a1.152 1.152 0 0 0-1.024 1.024v676.352c0 0.64 0.384 1.152 1.024 1.152H853.12c0.576 0 1.024-0.448 1.088-1.024V314.688v0.064z m36.864-232.512a55.296 55.296 0 0 1 76.16 79.872L567.936 542.72a55.296 55.296 0 1 1-76.224-80l399.424-380.48z"  /></svg>