<?xml version="1.0" standalone="no"?><!DOCTYPE svg PUBLIC "-//W3C//DTD SVG 1.1//EN" "http://www.w3.org/Graphics/SVG/1.1/DTD/svg11.dtd"><svg t="1736323307317" class="icon" viewBox="0 0 1261 1024" version="1.1" xmlns="http://www.w3.org/2000/svg" p-id="29245" xmlns:xlink="http://www.w3.org/1999/xlink" width="246.2890625" height="200"><path d="M961.776122 866.333588a59.225714 59.225714 0 0 1 0-118.136399 177.677143 177.677143 0 0 0 181.142477-177.204597 170.352686 170.352686 0 0 0-63.006079-132.470281c0-3.307819-7.87576-6.458123-7.87576-9.52967v-0.630061c-7.87576-2.756516-7.87576-5.434274-15.75152-7.87576v-1.181364c0-2.205213-7.87576-4.410426-7.87576-6.379365-7.87576-0.551303-7.87576-1.102606-7.875759-1.575152 0-1.732667-7.87576-3.386577-7.87576-4.882971s-7.87576-1.181364-7.87576-1.811425-7.87576-2.441486-7.87576-3.465334-7.87576-1.260122-7.87576-1.811425-7.87576-1.575152-7.87576-2.126455c-7.87576-0.630061-7.87576-1.023849-7.87576-1.496395a12.601216 12.601216 0 0 1-7.87576-0.945091c-7.87576-0.551303-15.75152-0.945091-23.627279-0.945091 0-10.080973-7.87576-20.00443-7.87576-29.770372v-7.009427a25.91125 25.91125 0 0 1-7.87576-21.97337c0-2.126455 0-4.174153-7.87576-6.300608a24.572371 24.572371 0 0 0-7.87576-21.500824V302.42918c-7.87576-7.324457-7.87576-14.570156-15.75152-21.579582A329.206763 329.206763 0 0 0 630.994206 118.057641a319.677094 319.677094 0 0 0-283.527356 162.791957c-7.87576 7.009426-7.87576 14.255125-15.751519 21.579582v4.725456a24.572371 24.572371 0 0 0-7.87576 21.500824c-7.87576 2.126455-7.87576 4.174153-7.87576 6.300608a25.91125 25.91125 0 0 1-7.87576 21.97337v7.009426c0 9.765942-7.87576 19.6894-7.87576 29.770373a23.62728 23.62728 0 0 0-7.87576 0l-15.75152 0.945091a12.601216 12.601216 0 0 1-7.875759 0.945091c0 0.472546 0 0.866334-7.87576 1.496395 0 0.551303-7.87576 1.338879-7.87576 2.126455s-7.87576 1.102606-7.87576 1.811424-7.87576 2.205213-7.87576 3.465335-7.87576 1.181364-7.87576 1.811425-7.87576 3.150304-7.87576 4.882971c0 0.472546 0 1.023849-7.87576 1.575152 0 1.96894-7.87576 4.174153-7.87576 6.379365v1.181364c-7.87576 2.520243-7.87576 5.198002-15.751519 7.87576v0.630061c0 3.071546-7.87576 6.22185-7.87576 9.529669a170.352686 170.352686 0 0 0-63.006079 132.470282 176.023233 176.023233 0 0 0 173.266717 177.204597 59.225714 59.225714 0 1 1 0 118.136398 296.128572 296.128572 0 0 1-86.633359-577.765745A466.166228 466.166228 0 0 1 630.994206 0a447.343162 447.343162 0 0 1 417.415274 288.567842A292.58448 292.58448 0 0 1 1261.054997 570.992592 297.231178 297.231178 0 0 1 961.776122 866.333588zM473.479009 748.197189a49.85356 49.85356 0 0 1 39.378799 17.326672l110.260639 107.346607 173.266717-255.962196a72.220718 72.220718 0 0 1 47.254559-26.22628 58.438138 58.438138 0 0 1 63.006079 59.068199c0 12.601216-7.87576 24.25734-7.875759 33.78701l-220.521277 314.164062A48.987227 48.987227 0 0 1 630.994206 1023.848785a50.089833 50.089833 0 0 1-39.378799-17.247914l-157.515198-157.515197a49.381014 49.381014 0 0 1-23.627279-41.741528A63.006079 63.006079 0 0 1 473.479009 748.197189z" fill="#FFFFFF" p-id="29246"></path></svg>