<?xml version="1.0" standalone="no"?><!DOCTYPE svg PUBLIC "-//W3C//DTD SVG 1.1//EN" "http://www.w3.org/Graphics/SVG/1.1/DTD/svg11.dtd"><svg class="icon" width="200px" height="200.00px" viewBox="0 0 1024 1024" version="1.1" xmlns="http://www.w3.org/2000/svg"><path fill="#ffffff" d="M128.384 561.088L49.92 640 0 590.72l133.76-132.48 48.64 0.64 133.76 135.68-48.64 48.64-74.688-75.52a320 320 0 0 0 601.6 126.912l52.032 38.208a384 384 0 0 1-718.08-171.712z m703.36-29.824L752.64 451.2l-48.64 48.64 133.76 135.04 48.64 0.64 133.76-132.48-48-48.64-76.416 75.52a384 384 0 0 0-711.04-186.88l51.84 38.016a320 320 0 0 1 595.2 150.144z"  /></svg>